<svg width="75" height="28" viewBox="0 0 75 28" fill="none" xmlns="http://www.w3.org/2000/svg">
<path d="M33.9102 7.35449H26.4917V12.7867H33.5991V14.8926H26.4917V22H24.2662V5.2486H33.9102V7.35449ZM37.4429 7.85703C37.0441 7.85703 36.7091 7.72142 36.4379 7.45021C36.1666 7.179 36.031 6.85195 36.031 6.46906C36.031 6.08617 36.1666 5.75912 36.4379 5.4879C36.7091 5.20074 37.0441 5.05715 37.4429 5.05715C37.8258 5.05715 38.1529 5.20074 38.4241 5.4879C38.6953 5.75912 38.8309 6.08617 38.8309 6.46906C38.8309 6.85195 38.6953 7.179 38.4241 7.45021C38.1529 7.72142 37.8258 7.85703 37.4429 7.85703ZM36.39 22V10.0347H38.472V22H36.39ZM50.0239 10.0347H52.2734L47.4872 22H45.0463L40.2602 10.0347H42.5097L46.2668 19.7745L50.0239 10.0347ZM55.0265 16.9746C55.2339 18.0435 55.7205 18.8731 56.4863 19.4634C57.268 20.0536 58.2252 20.3488 59.3579 20.3488C60.9373 20.3488 62.086 19.7665 62.8039 18.6019L64.5748 19.6069C63.4102 21.4097 61.6553 22.3111 59.3101 22.3111C57.4116 22.3111 55.8641 21.7208 54.6675 20.5402C53.487 19.3437 52.8967 17.8361 52.8967 16.0174C52.8967 14.2146 53.479 12.7149 54.6436 11.5184C55.8082 10.3219 57.3158 9.72362 59.1665 9.72362C60.9214 9.72362 62.3492 10.3458 63.45 11.5902C64.5668 12.8186 65.1252 14.3023 65.1252 16.0413C65.1252 16.3444 65.1013 16.6555 65.0534 16.9746H55.0265ZM59.1665 11.6859C58.0497 11.6859 57.1244 12.005 56.3905 12.6431C55.6567 13.2653 55.202 14.1029 55.0265 15.1559H63.0193C62.8438 14.0231 62.3971 13.1616 61.6792 12.5714C60.9613 11.9811 60.1237 11.6859 59.1665 11.6859ZM69.6004 12.0449C70.2864 10.5612 71.5308 9.81934 73.3336 9.81934V11.997C72.3125 11.9492 71.4351 12.2204 70.7012 12.8107C69.9673 13.4009 69.6004 14.3502 69.6004 15.6584V22H67.5184V10.0347H69.6004V12.0449Z" fill="black"/>
<path d="M10.2143 4.08569L11.7073 10.6954L17.4368 7.07738L13.8188 12.8069L20.4285 14.3L13.8188 15.793L17.4368 21.5225L11.7073 17.9045L10.2143 24.5142L8.72123 17.9045L2.99169 21.5225L6.60975 15.793L0 14.3L6.60975 12.8069L2.99169 7.07738L8.72123 10.6954L10.2143 4.08569Z" fill="black"/>
</svg>
